<svg width="202" height="67" viewBox="0 0 202 67" fill="none" xmlns="http://www.w3.org/2000/svg">
<g clip-path="url(#clip0_10_1363)">
<path d="M42.2707 25.9932H30.3858V49.4543H22.4761V25.9932H10.5911V18.1873H42.2738V25.9932H42.2707Z" fill="#F6F6F6"/>
<path d="M73.0409 6.29175L68.5594 18.8165C74.3534 21.6138 78.1599 27.4582 78.1599 33.8455C78.1599 43.027 70.547 50.5832 61.2403 50.5832C59.9715 50.5832 58.7027 50.4166 57.4339 50.1668L53.5837 60.9768H49.3523L53.6681 48.8314C47.9585 45.9909 44.277 40.1495 44.277 33.8455C44.277 24.6609 51.9336 17.1479 61.2372 17.1479C62.4216 17.1479 63.6061 17.2713 64.7905 17.5242L68.8094 6.29483H73.0378L73.0409 6.29175ZM56.2463 41.5651L62.2091 24.7843C61.8716 24.7411 61.5747 24.7411 61.2372 24.7411C56.162 24.7411 51.9743 28.8307 51.9743 33.8424C51.9743 36.9297 53.5837 39.8935 56.2463 41.5651ZM70.4595 33.8424C70.4595 30.6688 68.6813 27.7482 65.9749 26.0765L60.0121 42.9006C60.4372 42.9407 60.8153 42.9838 61.2372 42.9838C66.3156 42.9838 70.4595 38.8511 70.4595 33.8424Z" fill="#F6F6F6"/>
<path d="M109.355 29.9194C109.355 36.3467 103.983 41.6484 97.4702 41.6484H89.5573V49.4544H81.6476V18.2305H97.4702C103.983 18.2305 109.355 23.492 109.355 29.9194ZM101.442 29.9194C101.442 27.7913 99.6234 26.0364 97.4671 26.0364H89.5542V33.8455H97.4671C99.6234 33.8455 101.442 32.0505 101.442 29.9225V29.9194Z" fill="#F6F6F6"/>
<path d="M119.902 49.4543H111.993V18.1873H119.902V49.4543Z" fill="#F6F6F6"/>
<path d="M155.735 40.6461C152.985 46.5739 146.938 50.4568 140.338 50.4568C130.99 50.4568 123.418 42.9839 123.418 33.7562C123.418 24.5284 130.99 17.0586 140.338 17.0586C147.063 17.0586 153.282 21.1081 155.904 27.2424L148.841 30.2063C147.404 26.8662 144.019 24.6117 140.338 24.6117C135.263 24.6117 131.075 28.7444 131.075 33.7531C131.075 38.7617 135.263 42.8976 140.338 42.8976C143.935 42.8976 147.232 40.7263 148.757 37.5126L155.735 40.6431V40.6461Z" fill="#F6F6F6"/>
<path d="M192.046 33.8423C192.046 43.0239 184.434 50.58 175.127 50.58C165.82 50.58 158.167 43.067 158.167 33.8423C158.167 24.6177 165.823 17.1448 175.127 17.1448C184.43 17.1448 192.046 24.6578 192.046 33.8423ZM184.349 33.8423C184.349 28.8306 180.205 24.741 175.127 24.741C170.049 24.741 165.864 28.8306 165.864 33.8423C165.864 38.8541 170.052 42.9838 175.127 42.9838C180.202 42.9838 184.349 38.851 184.349 33.8423Z" fill="#F6F6F6"/>
<path d="M202 67H0V0H202V67ZM3.52829 63.5211H198.475V3.482H3.52829V63.5211Z" fill="#F6F6F6"/>
</g>
<defs>
<clipPath id="clip0_10_1363">
<rect width="202" height="67" fill="white"/>
</clipPath>
</defs>
</svg>
